<svg width="25" height="24" viewBox="0 0 25 24" fill="none" xmlns="http://www.w3.org/2000/svg">
<path d="M9.39273 20.1661L9.39177 20.167C8.86299 20.6428 8.61736 20.8153 8.26319 20.8153C8.01148 20.8153 7.82881 20.7261 7.70591 20.5801C7.57964 20.4302 7.50042 20.2007 7.50042 19.8959V17.6344V17.4488H7.31484H6.89727C5.63872 17.4488 4.69618 17.1018 4.06783 16.4704C3.43932 15.8387 3.09867 14.8958 3.09867 13.6498V6.98613C3.09867 5.74032 3.4394 4.79753 4.06796 4.16594C4.69636 3.5345 5.63891 3.18754 6.89727 3.18754H18.1023C19.3649 3.18754 20.3074 3.53655 20.9347 4.16893C21.5623 4.80156 21.9009 5.74442 21.9009 6.98613V13.6498C21.9009 14.8917 21.5623 15.8347 20.9347 16.4674C20.3074 17.0998 19.3649 17.4488 18.1023 17.4488H12.5261H12.4557L12.403 17.4955L9.39273 20.1661ZM8.43393 19.409V19.855L8.75033 19.5406L11.5341 16.7742L11.5342 16.7743L11.5361 16.7722C11.6892 16.6154 11.8123 16.5326 11.9424 16.4852C12.0757 16.4366 12.2323 16.4191 12.4649 16.4191H18.1023C19.0104 16.4191 19.7124 16.1874 20.1856 15.7032C20.658 15.2199 20.8712 14.5168 20.8712 13.6413V6.98613C20.8712 6.1106 20.658 5.40947 20.1853 4.92829C19.7119 4.44649 19.0099 4.21718 18.1023 4.21718H6.90618C5.99433 4.21718 5.29001 4.44636 4.81538 4.9281C4.34126 5.40932 4.12794 6.11058 4.12794 6.98613V13.6413C4.12794 14.5168 4.34125 15.2201 4.81499 15.7034C5.28942 16.1875 5.99366 16.4191 6.9058 16.4191H7.96736C8.19048 16.4191 8.29053 16.4633 8.34086 16.5142C8.39167 16.5656 8.43393 16.6663 8.43393 16.8861V19.409ZM8.53566 13.6034L8.53566 13.6034H8.53303H7.0539C6.87784 13.6034 6.7436 13.4692 6.7436 13.2935C6.7436 13.1027 6.88431 12.9657 7.0539 12.9657H8.53266C8.70659 12.9657 8.85169 13.1067 8.85187 13.2928C8.85172 13.334 8.84343 13.3747 8.82745 13.4126C8.81145 13.4507 8.78807 13.4851 8.75866 13.514C8.72925 13.5429 8.6944 13.5657 8.65612 13.5811C8.61784 13.5964 8.5769 13.604 8.53566 13.6034ZM14.6942 13.6034V13.6034H14.6919H10.3336C10.1532 13.6034 10.0144 13.4649 10.0144 13.2935C10.0144 13.107 10.1597 12.9657 10.3336 12.9657H14.6919C14.8617 12.9657 15.0022 13.1025 15.0022 13.2931L15.0022 13.2954C15.0027 13.336 14.9951 13.3763 14.9798 13.4139C14.9645 13.4515 14.9418 13.4856 14.9131 13.5143C14.8844 13.543 14.8502 13.5657 14.8127 13.581C14.7751 13.5963 14.7348 13.6039 14.6942 13.6034ZM10.6469 11.3244H7.0539C6.88009 11.3244 6.7436 11.1921 6.7436 11.0056C6.7436 10.8318 6.88431 10.6864 7.0539 10.6864H10.6469C10.8165 10.6864 10.9572 10.8319 10.9572 11.0052C10.9572 11.1922 10.8206 11.3244 10.6469 11.3244ZM18.0674 11.3244H12.4389C12.2651 11.3244 12.1286 11.1921 12.1286 11.0056C12.1286 10.8318 12.2693 10.6864 12.4389 10.6864H18.0674C18.2413 10.6864 18.3866 10.8363 18.3866 11.0052C18.3866 11.1879 18.2454 11.3244 18.0674 11.3244ZM18.0674 13.6034H16.4839C16.3079 13.6034 16.1736 13.4692 16.1736 13.2935C16.1736 13.1027 16.3144 12.9657 16.4839 12.9657H18.0674C18.2414 12.9657 18.3866 13.1068 18.3866 13.2931C18.3866 13.4647 18.2476 13.6034 18.0674 13.6034Z" fill="white" stroke="white" stroke-width="0.371174"/>
</svg>
